  0
SECTION
  2
HEADER
  9
$ACADVER
  1
AC1009
  9
$INSBASE
 10
0.0
 20
0.0
 30
0.0
  9
$EXTMIN
 10
3690.6979214902580679
 20
1335.8952905625130825
 30
0.0
  9
$EXTMAX
 10
3720.9956220749231761
 20
1352.8242430400230205
 30
0.0
  9
$LIMMIN
 10
0.0
 20
0.0
  9
$LIMMAX
 10
420.0
 20
297.0
  9
$ORTHOMODE
 70
     0
  9
$REGENMODE
 70
     1
  9
$FILLMODE
 70
     1
  9
$QTEXTMODE
 70
     0
  9
$MIRRTEXT
 70
     0
  9
$DRAGMODE
 70
     2
  9
$LTSCALE
 40
1.0
  9
$OSMODE
 70
    37
  9
$ATTMODE
 70
     1
  9
$TEXTSIZE
 40
2.5
  9
$TRACEWID
 40
1.0
  9
$TEXTSTYLE
  7
STANDARD
  9
$CLAYER
  8
0
  9
$CELTYPE
  6
BYLAYER
  9
$CECOLOR
 62
   256
  9
$DIMSCALE
 40
1.0
  9
$DIMASZ
 40
2.5
  9
$DIMEXO
 40
0.625
  9
$DIMDLI
 40
3.75
  9
$DIMRND
 40
0.0
  9
$DIMDLE
 40
0.0
  9
$DIMEXE
 40
1.25
  9
$DIMTP
 40
0.0
  9
$DIMTM
 40
0.0
  9
$DIMTXT
 40
2.5
  9
$DIMCEN
 40
2.5
  9
$DIMTSZ
 40
0.0
  9
$DIMTOL
 70
     0
  9
$DIMLIM
 70
     0
  9
$DIMTIH
 70
     0
  9
$DIMTOH
 70
     0
  9
$DIMSE1
 70
     0
  9
$DIMSE2
 70
     0
  9
$DIMTAD
 70
     1
  9
$DIMZIN
 70
     8
  9
$DIMBLK
  1

  9
$DIMASO
 70
     1
  9
$DIMSHO
 70
     1
  9
$DIMPOST
  1

  9
$DIMAPOST
  1

  9
$DIMALT
 70
     0
  9
$DIMALTD
 70
     3
  9
$DIMALTF
 40
0.03937007874016
  9
$DIMLFAC
 40
1.0
  9
$DIMTOFL
 70
     1
  9
$DIMTVP
 40
0.0
  9
$DIMTIX
 70
     0
  9
$DIMSOXD
 70
     0
  9
$DIMSAH
 70
     0
  9
$DIMBLK1
  1

  9
$DIMBLK2
  1

  9
$DIMSTYLE
  2
ISO-25
  9
$DIMCLRD
 70
     0
  9
$DIMCLRE
 70
     0
  9
$DIMCLRT
 70
     0
  9
$DIMTFAC
 40
1.0
  9
$DIMGAP
 40
0.625
  9
$LUNITS
 70
     2
  9
$LUPREC
 70
     4
  9
$SKETCHINC
 40
1.0
  9
$FILLETRAD
 40
0.0
  9
$AUNITS
 70
     0
  9
$AUPREC
 70
     0
  9
$MENU
  1
.
  9
$ELEVATION
 40
0.0
  9
$PELEVATION
 40
0.0
  9
$THICKNESS
 40
0.0
  9
$LIMCHECK
 70
     0
  9
$BLIPMODE
 70
     0
  9
$CHAMFERA
 40
0.0
  9
$CHAMFERB
 40
0.0
  9
$SKPOLY
 70
     0
  9
$TDCREATE
 40
2457973.7300810189917684
  9
$TDUPDATE
 40
2461162.5985763887874782
  9
$TDINDWG
 40
0.8952530093
  9
$TDUSRTIMER
 40
0.8952528935
  9
$USRTIMER
 70
     1
  9
$ANGBASE
 50
0.0
  9
$ANGDIR
 70
     0
  9
$PDMODE
 70
     0
  9
$PDSIZE
 40
0.0
  9
$PLINEWID
 40
0.0
  9
$COORDS
 70
     0
  9
$SPLFRAME
 70
     0
  9
$SPLINETYPE
 70
     6
  9
$SPLINESEGS
 70
     8
  9
$ATTDIA
 70
     1
  9
$ATTREQ
 70
     1
  9
$HANDLING
 70
     1
  9
$HANDSEED
  5
367
  9
$SURFTAB1
 70
     6
  9
$SURFTAB2
 70
     6
  9
$SURFTYPE
 70
     6
  9
$SURFU
 70
     6
  9
$SURFV
 70
     6
  9
$UCSNAME
  2

  9
$UCSORG
 10
0.0
 20
0.0
 30
0.0
  9
$UCSXDIR
 10
1.0
 20
0.0
 30
0.0
  9
$UCSYDIR
 10
0.0
 20
1.0
 30
0.0
  9
$PUCSNAME
  2

  9
$PUCSORG
 10
0.0
 20
0.0
 30
0.0
  9
$PUCSXDIR
 10
1.0
 20
0.0
 30
0.0
  9
$PUCSYDIR
 10
0.0
 20
1.0
 30
0.0
  9
$USERI1
 70
     0
  9
$USERI2
 70
     0
  9
$USERI3
 70
     0
  9
$USERI4
 70
     0
  9
$USERI5
 70
     0
  9
$USERR1
 40
0.0
  9
$USERR2
 40
0.0
  9
$USERR3
 40
0.0
  9
$USERR4
 40
0.0
  9
$USERR5
 40
0.0
  9
$WORLDVIEW
 70
     1
  9
$SHADEDGE
 70
     3
  9
$SHADEDIF
 70
    70
  9
$TILEMODE
 70
     1
  9
$MAXACTVP
 70
    64
  9
$PLIMCHECK
 70
     0
  9
$PEXTMIN
 10
1.0000000000000000E+20
 20
1.0000000000000000E+20
 30
1.0000000000000000E+20
  9
$PEXTMAX
 10
-1.0000000000000000E+20
 20
-1.0000000000000000E+20
 30
-1.0000000000000000E+20
  9
$PLIMMIN
 10
-420.3535353535347099
 20
0.0000000000004547
  9
$PLIMMAX
 10
0.3535353535347099
 20
297.4999999999996021
  9
$UNITMODE
 70
     0
  9
$VISRETAIN
 70
     1
  9
$PLINEGEN
 70
     0
  9
$PSLTSCALE
 70
     0
  0
ENDSEC
  0
SECTION
  2
TABLES
  0
TABLE
  2
VPORT
 70
     1
  0
VPORT
  2
*ACTIVE
 70
     0
 10
0.0
 20
0.0
 11
1.0
 21
1.0
 12
3712.654534599184899
 22
1341.2833643873671008
 13
0.0
 23
0.0
 14
10.0
 24
10.0
 15
10.0
 25
10.0
 16
0.0
 26
0.0
 36
1.0
 17
0.0
 27
0.0
 37
0.0
 40
38.0800750852702095
 41
1.9415730337078649
 42
50.0
 43
0.0
 44
0.0
 50
0.0
 51
0.0
 71
     0
 72
  1000
 73
     1
 74
     3
 75
     0
 76
     0
 77
     0
 78
     0
  0
ENDTAB
  0
TABLE
  2
LTYPE
 70
     3
  0
LTYPE
  2
CONTINUOUS
 70
     0
  3
Solid line
 72
    65
 73
     0
 40
0.0
  0
LTYPE
  2
OCJ-ESQUEMAS_UNIFILARES-CO
 70
     0
  3
Dashed __ __ __ __ __ __ __ __ __ __ __ __ __ _
 72
    65
 73
     2
 40
19.0500000000000007
 49
12.6999999999999993
 49
-6.3499999999999988
  0
LTYPE
  2
OCJ-ESQUEMAS_UNIFILARES-C0
 70
     0
  3
* Trazo de 5u
 72
    65
 73
     4
 40
7.099999999999997
 49
5.0
 49
-1.0
 49
0.1
 49
-1.0
  0
ENDTAB
  0
TABLE
  2
LAYER
 70
     9
  0
LAYER
  2
0
 70
     0
 62
     7
  6
CONTINUOUS
  0
LAYER
  2
OCJ-ESQUEMAS_UNIFILARES-CO
 70
     0
 62
     7
  6
CONTINUOUS
  0
LAYER
  2
OCJ-ESQUEMAS_UNIFILARES-C0
 70
     0
 62
   170
  6
CONTINUOUS
  0
LAYER
  2
OCJ-ESQUEMAS_UNIFILARES-C1
 70
     0
 62
     4
  6
CONTINUOUS
  0
LAYER
  2
OCJ-ESQUEMAS_UNIFILARES-C2
 70
     0
 62
    10
  6
CONTINUOUS
  0
LAYER
  2
OCJ-ESQUEMAS_UNIFILARES-C3
 70
     0
 62
     4
  6
CONTINUOUS
  0
LAYER
  2
OCJ-ESQUEMAS_UNIFILARES-C4
 70
     0
 62
     1
  6
CONTINUOUS
  0
LAYER
  2
OCJ-ESQUEMAS_UNIFILARES-C5
 70
     0
 62
    80
  6
CONTINUOUS
  0
LAYER
  2
OCJ-ESQUEMAS_UNIFILARES-C6
 70
     0
 62
    10
  6
CONTINUOUS
  0
ENDTAB
  0
TABLE
  2
STYLE
 70
     4
  0
STYLE
  2
STANDARD
 70
     0
 40
0.0
 41
1.0
 50
0.0
 71
     0
 42
2.5
  3
txt
  4

  0
STYLE
  2
OCJ-ESQUEMAS_UNIFILARES-CO
 70
     0
 40
0.175
 41
0.75
 50
0.0
 71
     0
 42
0.175
  3
ROMANS.SHX
  4

  0
STYLE
  2
OCJ-ESQUEMAS_UNIFILARES-C0
 70
     0
 40
0.2
 41
1.0
 50
0.0
 71
     0
 42
0.15
  3
txt
  4

  0
STYLE
  2
OCJ-ESQUEMAS_UNIFILARES-C1
 70
     0
 40
0.0
 41
0.7
 50
0.0
 71
     0
 42
74.6453483222576182
  3
txt
  4

  0
ENDTAB
  0
TABLE
  2
VIEW
 70
     0
  0
ENDTAB
  0
TABLE
  2
UCS
 70
     0
  0
ENDTAB
  0
TABLE
  2
APPID
 70
     9
  0
APPID
  2
ACAD
 70
     0
  0
APPID
  2
ACAD_PSEXT
 70
     0
  0
APPID
  2
ACAD_NAV_VCDISPLAY
 70
     0
  0
APPID
  2
RAK
 70
     0
  0
APPID
  2
ACDBDYNAMICBLOCKGUID
 70
     0
  0
APPID
  2
ACCMTRANSPARENCY
 70
     0
  0
APPID
  2
ACAD_EXEMPT_FROM_CAD_STANDARDS
 70
     0
  0
APPID
  2
CONTENTBLOCKICON
 70
     0
  0
APPID
  2
ACAD_MLEADERVER
 70
     0
  0
ENDTAB
  0
TABLE
  2
DIMSTYLE
 70
     1
  0
DIMSTYLE
  2
ISO-25
 70
     0
  3

  4

  5

  6

  7

 40
1.0
 41
2.5
 42
0.625
 43
3.75
 44
1.25
 45
0.0
 46
0.0
 47
0.0
 48
0.0
140
2.5
141
2.5
142
0.0
143
0.03937007874016
144
1.0
145
0.0
146
1.0
147
0.625
 71
     0
 72
     0
 73
     0
 74
     0
 75
     0
 76
     0
 77
     1
 78
     8
170
     0
171
     3
172
     1
173
     0
174
     0
175
     0
176
     0
177
     0
178
     0
  0
ENDTAB
  0
ENDSEC
  0
SECTION
  2
BLOCKS
  0
BLOCK
  8
0
  2
$MODEL_SPACE
 70
     0
 10
0.0
 20
0.0
 30
0.0
  3
$MODEL_SPACE
  1

  0
ENDBLK
  5
16
  8
0
  0
BLOCK
 67
     1
  8
0
  2
$PAPER_SPACE
 70
     0
 10
0.0
 20
0.0
 30
0.0
  3
$PAPER_SPACE
  1

  0
ENDBLK
  5
1F
 67
     1
  8
0
  0
BLOCK
  8
0
  2
OCJ-ESQUEMAS_UNIFILARES-CO
 70
     0
 10
0.0
 20
0.0
 30
0.0
  3
OCJ-ESQUEMAS_UNIFILARES-CO
  1

  0
POLYLINE
  5
83
  8
0
 66
     1
 10
0.0
 20
0.0
 30
0.0
  0
VERTEX
  5
255
  8
0
 10
-0.0900000000001455
 20
-0.0925945736052256
 30
0.0
  0
VERTEX
  5
256
  8
0
 10
0.0900000000001455
 20
-0.0925945736052256
 30
0.0
  0
SEQEND
  5
257
  8
0
  0
POLYLINE
  5
84
  8
0
 66
     1
 10
0.0
 20
0.0
 30
0.0
  0
VERTEX
  5
258
  8
0
 10
0.0
 20
0.2674054263946743
 30
0.0
  0
VERTEX
  5
259
  8
0
 10
0.0
 20
-0.0925945736052256
 30
0.0
  0
SEQEND
  5
25A
  8
0
  0
POLYLINE
  5
85
  8
0
 66
     1
 10
0.0
 20
0.0
 30
0.0
  0
VERTEX
  5
25B
  8
0
 10
-0.0900000000001455
 20
0.1774054263947562
 30
0.0
  0
VERTEX
  5
25C
  8
0
 10
0.0900000000001455
 20
-0.0025945736053075
 30
0.0
  0
SEQEND
  5
25D
  8
0
  0
POLYLINE
  5
86
  8
0
 66
     1
 10
0.0
 20
0.0
 30
0.0
  0
VERTEX
  5
25E
  8
0
 10
-0.0900000000001455
 20
-0.0025945736053075
 30
0.0
  0
VERTEX
  5
25F
  8
0
 10
0.0900000000001455
 20
0.1774054263947562
 30
0.0
  0
SEQEND
  5
260
  8
0
  0
POLYLINE
  5
87
  8
0
 66
     1
 10
0.0
 20
0.0
 30
0.0
  0
VERTEX
  5
261
  8
0
 10
0.0
 20
-0.720293673416836
 30
0.0
  0
VERTEX
  5
262
  8
0
 10
-0.2154726902949733
 20
-0.1282873223217846
 30
0.0
  0
SEQEND
  5
263
  8
0
  0
POLYLINE
  5
88
  8
0
 66
     1
 10
0.0
 20
0.0
 30
0.0
  0
VERTEX
  5
264
  8
0
 10
0.0
 20
-1.2152936734169539
 30
0.0
  0
VERTEX
  5
265
  8
0
 10
0.0
 20
-1.102793673416999
 30
0.0
  0
SEQEND
  5
266
  8
0
  0
POLYLINE
  5
89
  8
0
 66
     1
 10
0.0
 20
0.0
 30
0.0
  0
VERTEX
  5
267
  8
0
 10
0.0
 20
-1.0127936734168539
 30
0.0
  0
VERTEX
  5
268
  8
0
 10
0.0
 20
-0.9227936734169359
 30
0.0
  0
SEQEND
  5
269
  8
0
  0
POLYLINE
  5
8A
  8
0
 66
     1
 10
0.0
 20
0.0
 30
0.0
  0
VERTEX
  5
26A
  8
0
 10
0.0
 20
-0.8327936734167904
 30
0.0
  0
VERTEX
  5
26B
  8
0
 10
0.0
 20
-0.720293673416836
 30
0.0
  0
SEQEND
  5
26C
  8
0
  0
POLYLINE
  5
8B
  8
0
 66
     1
 10
0.0
 20
0.0
 30
0.0
  0
VERTEX
  5
26D
  8
0
 10
0.0
 20
-0.9227936734169359
 30
0.0
  0
VERTEX
  5
26E
  8
0
 10
0.0900000000001455
 20
-0.9227936734169359
 30
0.0
  0
VERTEX
  5
26F
  8
0
 10
0.0900000000001455
 20
-0.8327936734170178
 30
0.0
  0
VERTEX
  5
270
  8
0
 10
0.0
 20
-0.8327936734167904
 30
0.0
  0
SEQEND
  5
271
  8
0
  0
LINE
  5
8C
  8
0
 10
0.0
 20
-1.0127936734168539
 30
0.0
 11
0.0450000000000728
 21
-1.0127936734168539
 31
0.0
  0
ARC
  5
8D
  8
0
 10
0.0450000000000728
 20
-1.057793673416926
 30
0.0
 40
0.0450000000000102
 50
270.0
 51
90.0
  0
LINE
  5
8E
  8
0
 10
0.0
 20
-1.102793673416999
 30
0.0
 11
0.0450000000000728
 21
-1.102793673416999
 31
0.0
  0
ENDBLK
  5
8F
  8
0
  0
BLOCK
  8
0
  2
OCJ-ESQUEMAS_UNIFILARES-C0
 70
     0
 10
0.0
 20
0.0
 30
0.0
  3
OCJ-ESQUEMAS_UNIFILARES-C0
  1

  0
POLYLINE
  5
AA
  8
0
 66
     1
 10
0.0
 20
0.0
 30
0.0
  0
VERTEX
  5
272
  8
0
 10
0.0
 20
0.1774054263947562
 30
0.0
  0
VERTEX
  5
273
  8
0
 10
0.0
 20
-0.0925945736052256
 30
0.0
  0
SEQEND
  5
274
  8
0
  0
POLYLINE
  5
AB
  8
0
 66
     1
 10
0.0
 20
0.0
 30
0.0
  0
VERTEX
  5
275
  8
0
 10
-0.0675000000001092
 20
0.1099054263948744
 30
0.0
  0
VERTEX
  5
276
  8
0
 10
0.0675000000001092
 20
-0.0250945736051165
 30
0.0
  0
SEQEND
  5
277
  8
0
  0
POLYLINE
  5
AC
  8
0
 66
     1
 10
0.0
 20
0.0
 30
0.0
  0
VERTEX
  5
278
  8
0
 10
-0.0675000000001092
 20
-0.0250945736051165
 30
0.0
  0
VERTEX
  5
279
  8
0
 10
0.0675000000001092
 20
0.1099054263948744
 30
0.0
  0
SEQEND
  5
27A
  8
0
  0
POLYLINE
  5
AD
  8
0
 66
     1
 10
0.0
 20
0.0
 30
0.0
  0
VERTEX
  5
27B
  8
0
 10
0.0
 20
-0.5650945736050801
 30
0.0
  0
VERTEX
  5
27C
  8
0
 10
-0.161604517721571
 20
-0.1210898102837348
 30
0.0
  0
SEQEND
  5
27D
  8
0
  0
POLYLINE
  5
AE
  8
0
 66
     1
 10
0.0
 20
0.0
 30
0.0
  0
VERTEX
  5
27E
  8
0
 10
0.0
 20
-1.3075945736051431
 30
0.0
  0
VERTEX
  5
27F
  8
0
 10
0.0
 20
-0.5650945736050801
 30
0.0
  0
SEQEND
  5
280
  8
0
  0
POLYLINE
  5
AF
  8
0
 66
     1
 10
0.0
 20
0.0
 30
0.0
  0
VERTEX
  5
281
  8
0
 10
-0.0675000000001092
 20
-0.0925945736052256
 30
0.0
  0
VERTEX
  5
282
  8
0
 10
0.0675000000001092
 20
-0.0925945736052256
 30
0.0
  0
SEQEND
  5
283
  8
0
  0
POLYLINE
  5
B0
  8
0
 66
     1
 10
0.0
 20
0.0
 30
0.0
  0
VERTEX
  5
284
  8
0
 10
-0.0808022588607855
 20
-0.3430921919445211
 30
0.0
  0
VERTEX
  5
285
  8
0
 10
-0.4050000000002001
 20
-0.3430921919445211
 30
0.0
  0
VERTEX
  5
286
  8
0
 10
-0.4050000000002001
 20
-0.9700945736050528
 30
0.0
  0
VERTEX
  5
287
  8
0
 10
-0.2024999999998727
 20
-0.9700945736050528
 30
0.0
  0
SEQEND
  5
288
  8
0
  0
POLYLINE
  5
B1
  8
0
 10
0.2025
 20
-0.9700945736050528
 30
0.0
 66
     1
 70
     8
  0
VERTEX
  8
0
  5
2E5
 10
0.202500
 20
-0.970095
 30
0.00000
  70
    32
  0
VERTEX
  8
0
  5
2E6
 10
0.202256
 20
-0.963429
 30
0.00000
  70
    32
  0
VERTEX
  8
0
  5
2E7
 10
0.201525
 20
-0.956780
 30
0.00000
  70
    32
  0
VERTEX
  8
0
  5
2E8
 10
0.200308
 20
-0.950163
 30
0.00000
  70
    32
  0
VERTEX
  8
0
  5
2E9
 10
0.198609
 20
-0.943594
 30
0.00000
  70
    32
  0
VERTEX
  8
0
  5
2EA
 10
0.196431
 20
-0.937088
 30
0.00000
  70
    32
  0
VERTEX
  8
0
  5
2EB
 10
0.193780
 20
-0.930662
 30
0.00000
  70
    32
  0
VERTEX
  8
0
  5
2EC
 10
0.190663
 20
-0.924331
 30
0.00000
  70
    32
  0
VERTEX
  8
0
  5
2ED
 10
0.187086
 20
-0.918111
 30
0.00000
  70
    32
  0
VERTEX
  8
0
  5
2EE
 10
0.183058
 20
-0.912016
 30
0.00000
  70
    32
  0
VERTEX
  8
0
  5
2EF
 10
0.178589
 20
-0.906060
 30
0.00000
  70
    32
  0
VERTEX
  8
0
  5
2F0
 10
0.173690
 20
-0.900259
 30
0.00000
  70
    32
  0
VERTEX
  8
0
  5
2F1
 10
0.168373
 20
-0.894626
 30
0.00000
  70
    32
  0
VERTEX
  8
0
  5
2F2
 10
0.162650
 20
-0.889175
 30
0.00000
  70
    32
  0
VERTEX
  8
0
  5
2F3
 10
0.156535
 20
-0.883919
 30
0.00000
  70
    32
  0
VERTEX
  8
0
  5
2F4
 10
0.150043
 20
-0.878870
 30
0.00000
  70
    32
  0
VERTEX
  8
0
  5
2F5
 10
0.143189
 20
-0.874041
 30
0.00000
  70
    32
  0
VERTEX
  8
0
  5
2F6
 10
0.135991
 20
-0.869444
 30
0.00000
  70
    32
  0
VERTEX
  8
0
  5
2F7
 10
0.128465
 20
-0.865089
 30
0.00000
  70
    32
  0
VERTEX
  8
0
  5
2F8
 10
0.120629
 20
-0.860987
 30
0.00000
  70
    32
  0
VERTEX
  8
0
  5
2F9
 10
0.112503
 20
-0.857148
 30
0.00000
  70
    32
  0
VERTEX
  8
0
  5
2FA
 10
0.104106
 20
-0.853581
 30
0.00000
  70
    32
  0
VERTEX
  8
0
  5
2FB
 10
0.0954578
 20
-0.850294
 30
0.00000
  70
    32
  0
VERTEX
  8
0
  5
2FC
 10
0.0865799
 20
-0.847297
 30
0.00000
  70
    32
  0
VERTEX
  8
0
  5
2FD
 10
0.0774934
 20
-0.844595
 30
0.00000
  70
    32
  0
VERTEX
  8
0
  5
2FE
 10
0.0682202
 20
-0.842195
 30
0.00000
  70
    32
  0
VERTEX
  8
0
  5
2FF
 10
0.0587826
 20
-0.840104
 30
0.00000
  70
    32
  0
VERTEX
  8
0
  5
300
 10
0.0492035
 20
-0.838326
 30
0.00000
  70
    32
  0
VERTEX
  8
0
  5
301
 10
0.0395058
 20
-0.836865
 30
0.00000
  70
    32
  0
VERTEX
  8
0
  5
302
 10
0.0297129
 20
-0.835725
 30
0.00000
  70
    32
  0
VERTEX
  8
0
  5
303
 10
0.0198485
 20
-0.834909
 30
0.00000
  70
    32
  0
VERTEX
  8
0
  5
304
 10
0.00993620
 20
-0.834418
 30
0.00000
  70
    32
  0
VERTEX
  8
0
  5
305
 10
1.23995e-17
 20
-0.834255
 30
0.00000
  70
    32
  0
VERTEX
  8
0
  5
306
 10
-0.00993620
 20
-0.834418
 30
0.00000
  70
    32
  0
VERTEX
  8
0
  5
307
 10
-0.0198485
 20
-0.834909
 30
0.00000
  70
    32
  0
VERTEX
  8
0
  5
308
 10
-0.0297129
 20
-0.835725
 30
0.00000
  70
    32
  0
VERTEX
  8
0
  5
309
 10
-0.0395058
 20
-0.836865
 30
0.00000
  70
    32
  0
VERTEX
  8
0
  5
30A
 10
-0.0492035
 20
-0.838326
 30
0.00000
  70
    32
  0
VERTEX
  8
0
  5
30B
 10
-0.0587826
 20
-0.840104
 30
0.00000
  70
    32
  0
VERTEX
  8
0
  5
30C
 10
-0.0682202
 20
-0.842195
 30
0.00000
  70
    32
  0
VERTEX
  8
0
  5
30D
 10
-0.0774934
 20
-0.844595
 30
0.00000
  70
    32
  0
VERTEX
  8
0
  5
30E
 10
-0.0865799
 20
-0.847297
 30
0.00000
  70
    32
  0
VERTEX
  8
0
  5
30F
 10
-0.0954578
 20
-0.850294
 30
0.00000
  70
    32
  0
VERTEX
  8
0
  5
310
 10
-0.104106
 20
-0.853581
 30
0.00000
  70
    32
  0
VERTEX
  8
0
  5
311
 10
-0.112503
 20
-0.857148
 30
0.00000
  70
    32
  0
VERTEX
  8
0
  5
312
 10
-0.120629
 20
-0.860987
 30
0.00000
  70
    32
  0
VERTEX
  8
0
  5
313
 10
-0.128465
 20
-0.865089
 30
0.00000
  70
    32
  0
VERTEX
  8
0
  5
314
 10
-0.135991
 20
-0.869444
 30
0.00000
  70
    32
  0
VERTEX
  8
0
  5
315
 10
-0.143189
 20
-0.874041
 30
0.00000
  70
    32
  0
VERTEX
  8
0
  5
316
 10
-0.150043
 20
-0.878870
 30
0.00000
  70
    32
  0
VERTEX
  8
0
  5
317
 10
-0.156535
 20
-0.883919
 30
0.00000
  70
    32
  0
VERTEX
  8
0
  5
318
 10
-0.162650
 20
-0.889175
 30
0.00000
  70
    32
  0
VERTEX
  8
0
  5
319
 10
-0.168373
 20
-0.894626
 30
0.00000
  70
    32
  0
VERTEX
  8
0
  5
31A
 10
-0.173690
 20
-0.900259
 30
0.00000
  70
    32
  0
VERTEX
  8
0
  5
31B
 10
-0.178589
 20
-0.906060
 30
0.00000
  70
    32
  0
VERTEX
  8
0
  5
31C
 10
-0.183058
 20
-0.912016
 30
0.00000
  70
    32
  0
VERTEX
  8
0
  5
31D
 10
-0.187086
 20
-0.918111
 30
0.00000
  70
    32
  0
VERTEX
  8
0
  5
31E
 10
-0.190663
 20
-0.924331
 30
0.00000
  70
    32
  0
VERTEX
  8
0
  5
31F
 10
-0.193780
 20
-0.930662
 30
0.00000
  70
    32
  0
VERTEX
  8
0
  5
320
 10
-0.196431
 20
-0.937088
 30
0.00000
  70
    32
  0
VERTEX
  8
0
  5
321
 10
-0.198609
 20
-0.943594
 30
0.00000
  70
    32
  0
VERTEX
  8
0
  5
322
 10
-0.200308
 20
-0.950163
 30
0.00000
  70
    32
  0
VERTEX
  8
0
  5
323
 10
-0.201525
 20
-0.956780
 30
0.00000
  70
    32
  0
VERTEX
  8
0
  5
324
 10
-0.202256
 20
-0.963429
 30
0.00000
  70
    32
  0
VERTEX
  8
0
  5
325
 10
-0.202500
 20
-0.970095
 30
0.00000
  70
    32
  0
VERTEX
  8
0
  5
326
 10
-0.202256
 20
-0.976760
 30
0.00000
  70
    32
  0
VERTEX
  8
0
  5
327
 10
-0.201525
 20
-0.983409
 30
0.00000
  70
    32
  0
VERTEX
  8
0
  5
328
 10
-0.200308
 20
-0.990026
 30
0.00000
  70
    32
  0
VERTEX
  8
0
  5
329
 10
-0.198609
 20
-0.996596
 30
0.00000
  70
    32
  0
VERTEX
  8
0
  5
32A
 10
-0.196431
 20
-1.00310
 30
0.00000
  70
    32
  0
VERTEX
  8
0
  5
32B
 10
-0.193780
 20
-1.00953
 30
0.00000
  70
    32
  0
VERTEX
  8
0
  5
32C
 10
-0.190663
 20
-1.01586
 30
0.00000
  70
    32
  0
VERTEX
  8
0
  5
32D
 10
-0.187086
 20
-1.02208
 30
0.00000
  70
    32
  0
VERTEX
  8
0
  5
32E
 10
-0.183058
 20
-1.02817
 30
0.00000
  70
    32
  0
VERTEX
  8
0
  5
32F
 10
-0.178589
 20
-1.03413
 30
0.00000
  70
    32
  0
VERTEX
  8
0
  5
330
 10
-0.173690
 20
-1.03993
 30
0.00000
  70
    32
  0
VERTEX
  8
0
  5
331
 10
-0.168373
 20
-1.04556
 30
0.00000
  70
    32
  0
VERTEX
  8
0
  5
332
 10
-0.162650
 20
-1.05101
 30
0.00000
  70
    32
  0
VERTEX
  8
0
  5
333
 10
-0.156535
 20
-1.05627
 30
0.00000
  70
    32
  0
VERTEX
  8
0
  5
334
 10
-0.150043
 20
-1.06132
 30
0.00000
  70
    32
  0
VERTEX
  8
0
  5
335
 10
-0.143189
 20
-1.06615
 30
0.00000
  70
    32
  0
VERTEX
  8
0
  5
336
 10
-0.135991
 20
-1.07075
 30
0.00000
  70
    32
  0
VERTEX
  8
0
  5
337
 10
-0.128465
 20
-1.07510
 30
0.00000
  70
    32
  0
VERTEX
  8
0
  5
338
 10
-0.120629
 20
-1.07920
 30
0.00000
  70
    32
  0
VERTEX
  8
0
  5
339
 10
-0.112503
 20
-1.08304
 30
0.00000
  70
    32
  0
VERTEX
  8
0
  5
33A
 10
-0.104106
 20
-1.08661
 30
0.00000
  70
    32
  0
VERTEX
  8
0
  5
33B
 10
-0.0954578
 20
-1.08989
 30
0.00000
  70
    32
  0
VERTEX
  8
0
  5
33C
 10
-0.0865799
 20
-1.09289
 30
0.00000
  70
    32
  0
VERTEX
  8
0
  5
33D
 10
-0.0774934
 20
-1.09559
 30
0.00000
  70
    32
  0
VERTEX
  8
0
  5
33E
 10
-0.0682202
 20
-1.09799
 30
0.00000
  70
    32
  0
VERTEX
  8
0
  5
33F
 10
-0.0587826
 20
-1.10009
 30
0.00000
  70
    32
  0
VERTEX
  8
0
  5
340
 10
-0.0492035
 20
-1.10186
 30
0.00000
  70
    32
  0
VERTEX
  8
0
  5
341
 10
-0.0395058
 20
-1.10332
 30
0.00000
  70
    32
  0
VERTEX
  8
0
  5
342
 10
-0.0297129
 20
-1.10446
 30
0.00000
  70
    32
  0
VERTEX
  8
0
  5
343
 10
-0.0198485
 20
-1.10528
 30
0.00000
  70
    32
  0
VERTEX
  8
0
  5
344
 10
-0.00993620
 20
-1.10577
 30
0.00000
  70
    32
  0
VERTEX
  8
0
  5
345
 10
-3.71986e-17
 20
-1.10593
 30
0.00000
  70
    32
  0
VERTEX
  8
0
  5
346
 10
0.00993620
 20
-1.10577
 30
0.00000
  70
    32
  0
VERTEX
  8
0
  5
347
 10
0.0198485
 20
-1.10528
 30
0.00000
  70
    32
  0
VERTEX
  8
0
  5
348
 10
0.0297129
 20
-1.10446
 30
0.00000
  70
    32
  0
VERTEX
  8
0
  5
349
 10
0.0395058
 20
-1.10332
 30
0.00000
  70
    32
  0
VERTEX
  8
0
  5
34A
 10
0.0492035
 20
-1.10186
 30
0.00000
  70
    32
  0
VERTEX
  8
0
  5
34B
 10
0.0587826
 20
-1.10009
 30
0.00000
  70
    32
  0
VERTEX
  8
0
  5
34C
 10
0.0682202
 20
-1.09799
 30
0.00000
  70
    32
  0
VERTEX
  8
0
  5
34D
 10
0.0774934
 20
-1.09559
 30
0.00000
  70
    32
  0
VERTEX
  8
0
  5
34E
 10
0.0865799
 20
-1.09289
 30
0.00000
  70
    32
  0
VERTEX
  8
0
  5
34F
 10
0.0954578
 20
-1.08989
 30
0.00000
  70
    32
  0
VERTEX
  8
0
  5
350
 10
0.104106
 20
-1.08661
 30
0.00000
  70
    32
  0
VERTEX
  8
0
  5
351
 10
0.112503
 20
-1.08304
 30
0.00000
  70
    32
  0
VERTEX
  8
0
  5
352
 10
0.120629
 20
-1.07920
 30
0.00000
  70
    32
  0
VERTEX
  8
0
  5
353
 10
0.128465
 20
-1.07510
 30
0.00000
  70
    32
  0
VERTEX
  8
0
  5
354
 10
0.135991
 20
-1.07075
 30
0.00000
  70
    32
  0
VERTEX
  8
0
  5
355
 10
0.143189
 20
-1.06615
 30
0.00000
  70
    32
  0
VERTEX
  8
0
  5
356
 10
0.150043
 20
-1.06132
 30
0.00000
  70
    32
  0
VERTEX
  8
0
  5
357
 10
0.156535
 20
-1.05627
 30
0.00000
  70
    32
  0
VERTEX
  8
0
  5
358
 10
0.162650
 20
-1.05101
 30
0.00000
  70
    32
  0
VERTEX
  8
0
  5
359
 10
0.168373
 20
-1.04556
 30
0.00000
  70
    32
  0
VERTEX
  8
0
  5
35A
 10
0.173690
 20
-1.03993
 30
0.00000
  70
    32
  0
VERTEX
  8
0
  5
35B
 10
0.178589
 20
-1.03413
 30
0.00000
  70
    32
  0
VERTEX
  8
0
  5
35C
 10
0.183058
 20
-1.02817
 30
0.00000
  70
    32
  0
VERTEX
  8
0
  5
35D
 10
0.187086
 20
-1.02208
 30
0.00000
  70
    32
  0
VERTEX
  8
0
  5
35E
 10
0.190663
 20
-1.01586
 30
0.00000
  70
    32
  0
VERTEX
  8
0
  5
35F
 10
0.193780
 20
-1.00953
 30
0.00000
  70
    32
  0
VERTEX
  8
0
  5
360
 10
0.196431
 20
-1.00310
 30
0.00000
  70
    32
  0
VERTEX
  8
0
  5
361
 10
0.198609
 20
-0.996596
 30
0.00000
  70
    32
  0
VERTEX
  8
0
  5
362
 10
0.200308
 20
-0.990026
 30
0.00000
  70
    32
  0
VERTEX
  8
0
  5
363
 10
0.201525
 20
-0.983409
 30
0.00000
  70
    32
  0
VERTEX
  8
0
  5
364
 10
0.202256
 20
-0.976760
 30
0.00000
  70
    32
  0
VERTEX
  8
0
  5
365
 10
0.202500
 20
-0.970095
 30
0.00000
  70
    32
  0
SEQEND
  8
0
  5
366
  0
ENDBLK
  5
B2
  8
0
  0
BLOCK
  8
0
  2
OCJ-ESQUEMAS_UNIFILARES-C1
 70
     0
 10
0.0
 20
0.0
 30
0.0
  3
OCJ-ESQUEMAS_UNIFILARES-C1
  1

  0
POLYLINE
  5
FC
  8
OCJ-ESQUEMAS_UNIFILARES-C0
 66
     1
 10
0.0
 20
0.0
 30
0.0
  0
VERTEX
  5
296
  8
OCJ-ESQUEMAS_UNIFILARES-C0
 10
-0.0999999999999943
 20
1.25
 30
0.0
  0
VERTEX
  5
297
  8
OCJ-ESQUEMAS_UNIFILARES-C0
 10
0.0999999999999943
 20
1.25
 30
0.0
  0
SEQEND
  5
298
  8
OCJ-ESQUEMAS_UNIFILARES-C0
  0
POLYLINE
  5
FD
  8
OCJ-ESQUEMAS_UNIFILARES-C0
 66
     1
 10
0.0
 20
0.0
 30
0.0
  0
VERTEX
  5
299
  8
OCJ-ESQUEMAS_UNIFILARES-C0
 10
0.0
 20
1.649999999999977
 30
0.0
  0
VERTEX
  5
29A
  8
OCJ-ESQUEMAS_UNIFILARES-C0
 10
0.0
 20
1.25
 30
0.0
  0
SEQEND
  5
29B
  8
OCJ-ESQUEMAS_UNIFILARES-C0
  0
POLYLINE
  5
FE
  8
OCJ-ESQUEMAS_UNIFILARES-C0
 66
     1
 10
0.0
 20
0.0
 30
0.0
  0
VERTEX
  5
29C
  8
OCJ-ESQUEMAS_UNIFILARES-C0
 10
-0.0999999999999943
 20
1.5500000000000109
 30
0.0
  0
VERTEX
  5
29D
  8
OCJ-ESQUEMAS_UNIFILARES-C0
 10
0.0999999999999943
 20
1.349999999999965
 30
0.0
  0
SEQEND
  5
29E
  8
OCJ-ESQUEMAS_UNIFILARES-C0
  0
POLYLINE
  5
FF
  8
OCJ-ESQUEMAS_UNIFILARES-C0
 66
     1
 10
0.0
 20
0.0
 30
0.0
  0
VERTEX
  5
29F
  8
OCJ-ESQUEMAS_UNIFILARES-C0
 10
-0.0999999999999943
 20
1.349999999999965
 30
0.0
  0
VERTEX
  5
2A0
  8
OCJ-ESQUEMAS_UNIFILARES-C0
 10
0.0999999999999943
 20
1.5500000000000109
 30
0.0
  0
SEQEND
  5
2A1
  8
OCJ-ESQUEMAS_UNIFILARES-C0
  0
POLYLINE
  5
100
  8
OCJ-ESQUEMAS_UNIFILARES-C0
 66
     1
 10
0.0
 20
0.0
 30
0.0
  0
VERTEX
  5
2A2
  8
OCJ-ESQUEMAS_UNIFILARES-C0
 10
0.0
 20
0.5500000000000114
 30
0.0
  0
VERTEX
  5
2A3
  8
OCJ-ESQUEMAS_UNIFILARES-C0
 10
-0.2394141003279628
 20
1.207784834550125
 30
0.0
  0
SEQEND
  5
2A4
  8
OCJ-ESQUEMAS_UNIFILARES-C0
  0
POLYLINE
  5
101
  8
OCJ-ESQUEMAS_UNIFILARES-C0
 66
     1
 10
0.0
 20
0.0
 30
0.0
  0
VERTEX
  5
2A5
  8
OCJ-ESQUEMAS_UNIFILARES-C0
 10
0.0
 20
0.0
 30
0.0
  0
VERTEX
  5
2A6
  8
OCJ-ESQUEMAS_UNIFILARES-C0
 10
0.0
 20
0.125
 30
0.0
  0
SEQEND
  5
2A7
  8
OCJ-ESQUEMAS_UNIFILARES-C0
  0
POLYLINE
  5
102
  8
OCJ-ESQUEMAS_UNIFILARES-C0
 66
     1
 10
0.0
 20
0.0
 30
0.0
  0
VERTEX
  5
2A8
  8
OCJ-ESQUEMAS_UNIFILARES-C0
 10
0.0
 20
0.2250000000000227
 30
0.0
  0
VERTEX
  5
2A9
  8
OCJ-ESQUEMAS_UNIFILARES-C0
 10
0.0
 20
0.3250000000000455
 30
0.0
  0
SEQEND
  5
2AA
  8
OCJ-ESQUEMAS_UNIFILARES-C0
  0
POLYLINE
  5
103
  8
OCJ-ESQUEMAS_UNIFILARES-C0
 66
     1
 10
0.0
 20
0.0
 30
0.0
  0
VERTEX
  5
2AB
  8
OCJ-ESQUEMAS_UNIFILARES-C0
 10
0.0
 20
0.4250000000000683
 30
0.0
  0
VERTEX
  5
2AC
  8
OCJ-ESQUEMAS_UNIFILARES-C0
 10
0.0
 20
0.5500000000000114
 30
0.0
  0
SEQEND
  5
2AD
  8
OCJ-ESQUEMAS_UNIFILARES-C0
  0
POLYLINE
  5
104
  8
OCJ-ESQUEMAS_UNIFILARES-C0
 66
     1
 10
0.0
 20
0.0
 30
0.0
  0
VERTEX
  5
2AE
  8
OCJ-ESQUEMAS_UNIFILARES-C0
 10
0.0
 20
0.3250000000000455
 30
0.0
  0
VERTEX
  5
2AF
  8
OCJ-ESQUEMAS_UNIFILARES-C0
 10
0.0999999999999943
 20
0.3249999999999886
 30
0.0
  0
VERTEX
  5
2B0
  8
OCJ-ESQUEMAS_UNIFILARES-C0
 10
0.0999999999999943
 20
0.4250000000000114
 30
0.0
  0
VERTEX
  5
2B1
  8
OCJ-ESQUEMAS_UNIFILARES-C0
 10
0.0
 20
0.4250000000000683
 30
0.0
  0
SEQEND
  5
2B2
  8
OCJ-ESQUEMAS_UNIFILARES-C0
  0
LINE
  5
105
  8
OCJ-ESQUEMAS_UNIFILARES-C0
 10
0.0
 20
0.2250000000000227
 30
0.0
 11
0.0500000000000114
 21
0.2250000000000227
 31
0.0
  0
ARC
  5
106
  8
OCJ-ESQUEMAS_UNIFILARES-C0
 10
0.0500000000000114
 20
0.1750000000000114
 30
0.0
 40
0.0500000000000114
 50
270.0
 51
90.0
  0
LINE
  5
107
  8
OCJ-ESQUEMAS_UNIFILARES-C0
 10
0.0
 20
0.125
 30
0.0
 11
0.0500000000000114
 21
0.125
 31
0.0
  0
ENDBLK
  5
108
  8
0
  0
BLOCK
  8
0
  2
OCJ-ESQUEMAS_UNIFILARES-C2
 70
     0
 10
0.0
 20
0.0
 30
0.0
  3
OCJ-ESQUEMAS_UNIFILARES-C2
  1

  0
POLYLINE
  5
EB
  8
0
 66
     1
 10
0.0
 20
0.0
 30
0.0
  0
VERTEX
  5
289
  8
0
 10
-0.0720000000001164
 20
0.5921592798492838
 30
0.0
  0
VERTEX
  5
28A
  8
0
 10
0.0720000000001164
 20
0.5921592798492838
 30
0.0
  0
SEQEND
  5
28B
  8
0
  0
POLYLINE
  5
EC
  8
0
 66
     1
 10
0.0
 20
0.0
 30
0.0
  0
VERTEX
  5
28C
  8
0
 10
0.0
 20
0.8801592798490673
 30
0.0
  0
VERTEX
  5
28D
  8
0
 10
0.0
 20
0.5921592798492838
 30
0.0
  0
SEQEND
  5
28E
  8
0
  0
POLYLINE
  5
ED
  8
0
 66
     1
 10
0.0
 20
0.0
 30
0.0
  0
VERTEX
  5
28F
  8
0
 10
0.0
 20
0.0899999999999182
 30
0.0
  0
VERTEX
  5
290
  8
0
 10
-0.1723781522359786
 20
0.5636050808759592
 30
0.0
  0
SEQEND
  5
291
  8
0
  0
POLYLINE
  5
EE
  8
0
 66
     1
 10
0.0
 20
0.0
 30
0.0
  0
VERTEX
  5
292
  8
0
 10
0.0
 20
0.0
 30
0.0
  0
VERTEX
  5
293
  8
0
 10
0.0
 20
0.0899999999999182
 30
0.0
  0
SEQEND
  5
294
  8
0
  0
ENDBLK
  5
EF
  8
0
  0
ENDSEC
  0
SECTION
  2
ENTITIES
  0
INSERT
  5
199
  8
OCJ-ESQUEMAS_UNIFILARES-C0
  2
OCJ-ESQUEMAS_UNIFILARES-CO
 10
3706.6419906063570124
 20
1352.6103186989068945
 30
0.0
 41
0.7999999999999546
 42
0.7999999999999546
 43
0.7999999999999546
  0
VIEWPORT
  5
20F
 67
     1
  8
0
 10
-160.5239898989900098
 20
148.75
 30
0.0
 40
519.6590909090891728
 41
297.4999999999990905
 68
     1
 69
     1
1001
ACAD
1000
MVIEW
1002
{
1070
    16
1010
0.0
1020
0.0
1030
0.0
1010
0.0
1020
0.0
1030
1.0
1040
0.0
1040
297.4999999999990905
1040
-160.5239898989900098
1040
148.75
1040
50.0
1040
0.0
1040
0.0
1070
     0
1070
  1000
1070
     1
1070
     1
1070
     0
1070
     0
1070
     0
1070
     0
1040
0.0
1040
0.0
1040
0.0
1040
10.0
1040
10.0
1040
10.0
1040
10.0
1070
     0
1002
{
1002
}
1002
}
  0
ENDSEC
  0
EOF
